<svg xmlns="http://www.w3.org/2000/svg" xmlns:xlink="http://www.w3.org/1999/xlink" version="1.1" x="0px" y="0px" viewBox="0 0 450 562.5" style="enable-background:new 0 0 450 450;" xml:space="preserve"><g><g><path d="M428.9,371.4H21.6c-9.6,0-17.4-7.8-17.4-17.4V97.5c0-9.6,7.8-17.4,17.4-17.4h407.3c9.6,0,17.4,7.8,17.4,17.4V354    C446.3,363.6,438.5,371.4,428.9,371.4z M21.6,90.1c-4.1,0-7.4,3.3-7.4,7.4V354c0,4.1,3.3,7.4,7.4,7.4h407.3c4.1,0,7.4-3.3,7.4-7.4    V97.5c0-4.1-3.3-7.4-7.4-7.4C428.9,90.1,21.6,90.1,21.6,90.1z"/></g><g><g><path d="M104.1,275.2c-38.8,0-70.4-31.6-70.4-70.4c0-38.8,31.6-70.4,70.4-70.4s70.4,31.6,70.4,70.4     C174.5,243.6,142.9,275.2,104.1,275.2z M104.1,144.4c-33.3,0-60.4,27.1-60.4,60.4s27.1,60.4,60.4,60.4s60.4-27.1,60.4-60.4     S137.4,144.4,104.1,144.4z"/></g><g><path d="M104.1,233.2c-15.7,0-28.4-12.7-28.4-28.4s12.7-28.4,28.4-28.4s28.4,12.7,28.4,28.4S119.7,233.2,104.1,233.2z      M104.1,186.4c-10.1,0-18.4,8.3-18.4,18.4s8.3,18.4,18.4,18.4s18.4-8.3,18.4-18.4S114.2,186.4,104.1,186.4z"/></g><g><path d="M346.5,275.2c-38.8,0-70.4-31.6-70.4-70.4c0-38.8,31.6-70.4,70.4-70.4c38.8,0,70.4,31.6,70.4,70.4     C416.9,243.6,385.3,275.2,346.5,275.2z M346.5,144.4c-33.3,0-60.4,27.1-60.4,60.4s27.1,60.4,60.4,60.4s60.4-27.1,60.4-60.4     S379.8,144.4,346.5,144.4z"/></g><g><path d="M346.5,233.2c-15.7,0-28.4-12.7-28.4-28.4s12.7-28.4,28.4-28.4c15.7,0,28.4,12.7,28.4,28.4S362.1,233.2,346.5,233.2z      M346.5,186.4c-10.1,0-18.4,8.3-18.4,18.4s8.3,18.4,18.4,18.4c10.1,0,18.4-8.3,18.4-18.4S356.6,186.4,346.5,186.4z"/></g><g><path d="M199.5,275.2c-2.8,0-5-2.2-5-5V139.4c0-2.8,2.2-5,5-5s5,2.2,5,5v130.8C204.5,272.9,202.2,275.2,199.5,275.2z"/></g><g><path d="M251.1,275.2c-2.8,0-5-2.2-5-5V139.4c0-2.8,2.2-5,5-5s5,2.2,5,5v130.8C256.1,272.9,253.8,275.2,251.1,275.2z"/></g><g><path d="M221.1,171.4h-43.2c-2.8,0-5-2.2-5-5s2.2-5,5-5h43.2c2.8,0,5,2.2,5,5S223.8,171.4,221.1,171.4z"/></g><g><path d="M272.7,246.4h-43.2c-2.8,0-5-2.2-5-5s2.2-5,5-5h43.2c2.8,0,5,2.2,5,5S275.4,246.4,272.7,246.4z"/></g><g><path d="M402.3,126.4h-354c-8,0-14.6-6.6-14.6-14.6s6.5-14.6,14.6-14.6h354c8,0,14.6,6.6,14.6,14.6S410.3,126.4,402.3,126.4z      M48.3,107.2c-2.5,0-4.6,2.1-4.6,4.6s2.1,4.6,4.6,4.6h354c2.5,0,4.6-2.1,4.6-4.6s-2.1-4.6-4.6-4.6H48.3z"/></g><g><g><path d="M149.9,354.3H58.2c-6.8,0-12.3-5.5-12.3-12.3v-48.5c0-6.8,5.5-12.3,12.3-12.3h91.7c6.8,0,12.3,5.5,12.3,12.3V342      C162.2,348.8,156.7,354.3,149.9,354.3z M58.2,291.3c-1.2,0-2.3,1-2.3,2.3V342c0,1.2,1,2.3,2.3,2.3h91.7c1.2,0,2.3-1,2.3-2.3      v-48.5c0-1.2-1-2.3-2.3-2.3L58.2,291.3L58.2,291.3z"/></g><g><path d="M392.3,354.3h-91.7c-6.8,0-12.3-5.5-12.3-12.3v-48.5c0-6.8,5.5-12.3,12.3-12.3h91.7c6.8,0,12.3,5.5,12.3,12.3V342      C404.6,348.8,399.1,354.3,392.3,354.3z M300.6,291.3c-1.2,0-2.3,1-2.3,2.3V342c0,1.2,1,2.3,2.3,2.3h91.7c1.2,0,2.3-1,2.3-2.3      v-48.5c0-1.2-1-2.3-2.3-2.3L300.6,291.3L300.6,291.3z"/></g></g><g><path d="M157.2,322.8H51c-2.8,0-5-2.2-5-5s2.2-5,5-5h106.2c2.8,0,5,2.2,5,5S159.9,322.8,157.2,322.8z"/></g><g><path d="M104.1,354.3c-2.8,0-5-2.2-5-5v-63c0-2.8,2.2-5,5-5s5,2.2,5,5v63C109.1,352.1,106.8,354.3,104.1,354.3z"/></g><g><path d="M399.6,322.8H293.4c-2.8,0-5-2.2-5-5s2.2-5,5-5h106.2c2.8,0,5,2.2,5,5S402.3,322.8,399.6,322.8z"/></g><g><path d="M346.5,354.3c-2.8,0-5-2.2-5-5v-63c0-2.8,2.2-5,5-5s5,2.2,5,5v63C351.5,352.1,349.2,354.3,346.5,354.3z"/></g><g><path d="M259.8,336.5h-69c-10.3,0-18.7-8.4-18.7-18.7s8.4-18.7,18.7-18.7h69c10.3,0,18.7,8.4,18.7,18.7S270.1,336.5,259.8,336.5z      M190.7,309.1c-4.8,0-8.7,3.9-8.7,8.7s3.9,8.7,8.7,8.7h69c4.8,0,8.7-3.9,8.7-8.7s-3.9-8.7-8.7-8.7H190.7z"/></g></g></g><text x="0" y="465" fill="#000000" font-size="5px" font-weight="bold" font-family="'Helvetica Neue', Helvetica, Arial-Unicode, Arial, Sans-serif">Created by Vectoricons</text><text x="0" y="470" fill="#000000" font-size="5px" font-weight="bold" font-family="'Helvetica Neue', Helvetica, Arial-Unicode, Arial, Sans-serif">from the Noun Project</text></svg>