<svg xmlns="http://www.w3.org/2000/svg" version="1.1" viewBox="-5.0 -10.0 110.0 135.0">
 <g>
  <path d="m79.602 76.301h-59.203c-1.1016 0-2-0.89844-2-2v-41.801c0-1.1016 0.89844-2 2-2h59.102c1.1016 0 2 0.89844 2 2v41.801c0.10156 1.0977-0.80078 2-1.8984 2zm-57.203-4h55.102v-37.801h-55.102z"/>
  <path d="m58.5 29c-0.19922 0-0.39844 0-0.60156-0.10156-5-1.6016-10.301-1.6016-15.801 0-1.1016 0.30078-2.1992-0.30078-2.5-1.3984-0.30078-1.1016 0.30078-2.1992 1.3008-2.5 6.3008-1.8984 12.398-1.8984 18.199 0 1 0.30078 1.6016 1.5 1.3008 2.5-0.29688 0.89844-1.0977 1.5-1.8984 1.5z"/>
  <path d="m72.801 29.801h-3.8984c-0.60156 0-1-0.5-1-1s0.39844-1 1-1h3.8984c0.60156 0 1 0.5 1 1s-0.40234 1-1 1z"/>
  <path d="m31.102 29.801h-3.8984c-0.5 0-1-0.5-1-1s0.5-1 1-1h3.8984c0.5 0 1 0.5 1 1s-0.5 1-1 1z"/>
 </g>
<text x="0.0" y="117.5" font-size="5.0" font-weight="bold" font-family="Arbeit Regular, Helvetica, Arial-Unicode, Arial, Sans-serif" fill="#000000">Created by Han Verhoeven</text><text x="0.0" y="122.5" font-size="5.0" font-weight="bold" font-family="Arbeit Regular, Helvetica, Arial-Unicode, Arial, Sans-serif" fill="#000000">from Noun Project</text></svg>