<svg xmlns="http://www.w3.org/2000/svg" viewBox="0 0 32 40" x="0px" y="0px"><g data-name="thumbs up shield"><path d="M19.70508,11.74463c.56086-1.66648.71131-3.82634-1.7197-4.02635a.82644.82644,0,0,0-.8262.76414c-.23738,2.46262-2.13114,2.50576-3.64471,3.68707a1.31249,1.31249,0,0,0-1.1131-.64508H10.07422a1.33368,1.33368,0,0,0-1.332,1.332v5.72314a1.33368,1.33368,0,0,0,1.332,1.332h2.32715a1.32937,1.32937,0,0,0,1.20691-.78412c1.89175.92364,4.19043.8939,6.295.86615l.66406-.00781a1.62649,1.62649,0,0,0,1.582-1.27832l1.07227-5.00635a1.62691,1.62691,0,0,0-1.58108-1.95652Zm-6.97168,6.835a.33269.33269,0,0,1-.332.332H10.07422a.33269.33269,0,0,1-.332-.332V12.85645a.33269.33269,0,0,1,.332-.332h2.32715a.3327.3327,0,0,1,.332.332C12.73283,12.97394,12.73381,18.46216,12.7334,18.57959Zm9.50976-5.08789L21.1709,18.49854a.62147.62147,0,0,1-.60742.4873c-2.27078.01792-4.921.175-6.83008-.9248V13.29346c1.68209-1.56347,3.93936-1.39638,4.40039-4.55616,1.33375.27483,1.00545,1.52829.50781,3.00733h-.64551a.50009.50009,0,0,0,0,1h3.64449A.61984.61984,0,0,1,22.24316,13.4917ZM11.23663,14.352a.5003.5003,0,0,1,0-1A.5003.5003,0,0,1,11.23663,14.352ZM27.89551,5.44434,23.84863,1.37549a1.42888,1.42888,0,0,0-1.0039-.417H9.15527a1.42489,1.42489,0,0,0-1.00488.418L4.10352,5.44531a1.40951,1.40951,0,0,0-.41114.99854V18.57959A8.49474,8.49474,0,0,0,7.48926,25.6665l7.72656,5.1377a1.42242,1.42242,0,0,0,1.57031,0l7.72266-5.13769a8.49181,8.49181,0,0,0,3.79883-7.08691V6.44385A1.40852,1.40852,0,0,0,27.89551,5.44434Zm-.58789,13.13525a7.49262,7.49262,0,0,1-3.35254,6.25391l-7.72266,5.13769a.42344.42344,0,0,1-.46289,0L8.044,24.8335a7.49408,7.49408,0,0,1-3.35157-6.25391V6.44385a.42488.42488,0,0,1,.1211-.29444l4.0459-4.06787a.4209.4209,0,0,1,.29589-.123H22.84473a.42475.42475,0,0,1,.29589.123l4.0459,4.06787a.41478.41478,0,0,1,.1211.29444ZM22.81836,2.94092a.50079.50079,0,0,0-.35449-.14746H9.53711a.50079.50079,0,0,0-.35449.14746L5.67285,6.46973a.50142.50142,0,0,0-.14551.35254V18.57959a6.66332,6.66332,0,0,0,2.97852,5.55908l7.2168,4.79981a.50238.50238,0,0,0,.55468,0l7.2168-4.79981a6.662,6.662,0,0,0,2.97852-5.55908V6.82227a.50142.50142,0,0,0-.14551-.35254Zm2.6543,15.63867a5.6631,5.6631,0,0,1-2.53321,4.72607L16,27.92139,9.06055,23.30566a5.66437,5.66437,0,0,1-2.53321-4.72607V7.02881L9.74512,3.79346H22.25586l3.2168,3.23486Z"/></g><text x="0" y="47" fill="#000000" font-size="5px" font-weight="bold" font-family="'Helvetica Neue', Helvetica, Arial-Unicode, Arial, Sans-serif">Created by sugeng riyanto</text><text x="0" y="52" fill="#000000" font-size="5px" font-weight="bold" font-family="'Helvetica Neue', Helvetica, Arial-Unicode, Arial, Sans-serif">from the Noun Project</text></svg>