<svg xmlns="http://www.w3.org/2000/svg" xmlns:xlink="http://www.w3.org/1999/xlink" version="1.1" x="0px" y="0px" viewBox="0 0 512 640" style="enable-background:new 0 0 512 512;" xml:space="preserve"><path d="M275.4,292.1c-4-6.9,6.5-13,10.5-6l9.8,16.9l34.7-34.7c5.6-5.6,14.3,2.9,8.6,8.6l-40.3,40.3l0,0c-2.8,2.8-7.5,2.2-9.6-1.3  L275.4,292.1z M309.4,221.5c0.5,0,0.9,0,1.5,0c-0.4-14.5-12.4-26.2-26.9-26.2h-78.4c-14.8,0-26.9,12.1-26.9,26.9v59.9h60.7  C244.3,247.6,274,221.5,309.4,221.5L309.4,221.5z M323.1,222.8c25,4.9,45.4,22.9,53.4,46.8c22.9-50.3,12.1-109.5-26.9-148.5  c-51.7-51.7-135.5-51.7-187.1,0c-51.7,51.7-51.7,135.5,0,187.1c26.2,26.2,62.7,40.9,102,38.5c-15.4-12.7-25.1-31.5-25.7-52.5h-66.1  c-3.4,0-6.1-2.7-6.1-6.1v-66c0-21.5,17.6-39.1,39.1-39.1h13.2c-23-16.1-25.9-49.1-6-69c17.7-17.7,46.4-17.7,64,0  c19.9,19.9,17,52.9-6,69H284C305.5,183.1,323.1,200.5,323.1,222.8L323.1,222.8z M380,288.8c1.9,40.4-30.3,74.1-70.6,74.1  c-10,0-19.6-2.1-28.3-5.9c-3.8,0.6-7.6,1.2-11.5,1.6c-85.1,7.9-158.1-58.8-158.1-143.9c0-79.8,64.7-144.5,144.5-144.5  c96.1,0,165.1,92,139,183.9C391.5,266.4,386.5,278.1,380,288.8L380,288.8z M350.8,250.8c-22.9-22.9-59.9-22.9-82.8,0  c-22.9,22.9-22.9,59.9,0,82.8c22.9,22.9,59.9,22.9,82.8,0C373.6,310.7,373.6,273.6,350.8,250.8L350.8,250.8z M268.2,122.6  c-20.8-20.8-56.5-6-56.5,23.4s35.7,44.2,56.5,23.4C281.1,156.5,281.1,135.6,268.2,122.6L268.2,122.6z M256,21.7  c106.6,0,193,86.4,193,193c0,48.6-18,93.1-47.7,127l55.1,95.4l0,0c2.4,4.2-0.9,9.5-5.8,9.1l-49.7-4.6l-20.5,45.2v0  c-2,4.5-8.3,4.9-10.8,0.6l-51.8-89.8c-39.9,13.5-83.7,13.5-123.6,0l-51.8,89.8c-2.5,4.3-8.8,4-10.8-0.6l-20.5-45.1l-49.7,4.6  c-4.8,0.4-8.4-4.8-5.7-9.2l55-95.3c-66.9-76.4-63-191.6,8.8-263.4C154.5,43.3,202.7,21.7,256,21.7L256,21.7z M392.6,350.9  c-17.6,17.9-39.8,32.6-63.4,42.3l44.9,77.8l17.4-38.3c1.2-2.5,3.9-3.9,6.5-3.5l41.9,3.9L392.6,350.9z M182.7,393.2  c-23.6-9.7-45.7-24.4-63.4-42.3L72,433.1l41.9-3.9c2.6-0.4,5.3,0.9,6.5,3.5l17.4,38.3L182.7,393.2z M383.8,86.8  c-70.6-70.6-185.1-70.6-255.7,0c-70.6,70.6-70.6,185.1,0,255.7c70.6,70.6,185.1,70.6,255.7,0C454.4,271.9,454.4,157.4,383.8,86.8  L383.8,86.8z"/><text x="0" y="527" fill="#000000" font-size="5px" font-weight="bold" font-family="'Helvetica Neue', Helvetica, Arial-Unicode, Arial, Sans-serif">Created by aristeles</text><text x="0" y="532" fill="#000000" font-size="5px" font-weight="bold" font-family="'Helvetica Neue', Helvetica, Arial-Unicode, Arial, Sans-serif">from the Noun Project</text></svg>